<svg width="126" height="126" viewBox="0 0 126 126" fill="none" xmlns="http://www.w3.org/2000/svg">
<path fill-rule="evenodd" clip-rule="evenodd" d="M63 0C28.2061 0 0 28.2061 0 63C0 97.7792 28.1821 125.976 62.9557 126C62.9704 126 62.9852 126 63 126C63.0148 126 63.0296 126 63.0443 126C97.8031 125.976 125.976 97.8031 126 63.0443C126 63.0296 126 63.0148 126 63C126 62.9852 126 62.9704 126 62.9557C125.976 28.1821 97.7792 0 63 0ZM51.0703 27H27.2578L54.9257 66.3106L27 99H34.5L58.3125 71.1211L77.9355 99H101.742L71.3672 55.8398L96 27H88.5L67.9805 51.0293L51.0703 27ZM90.2578 93H81.0644L38.7422 33H47.9355L90.2578 93Z" fill="#D9D9D9"/>
</svg>
